<svg xmlns="http://www.w3.org/2000/svg" width="156" height="156" fill="none"><path fill="#A6C8FF" d="M38.202 40.603c-7.967-7.972-15.874-15.874-23.855-23.86.936-.796 1.776-1.51 2.612-2.225-.057-.056-.113-.117-.17-.173.03-.004.066-.017.096-.013.034.004.07.013.1.035.056.039.116.073.164.12Q47.508 44.83 77.867 75.172c.021.021.06.034.203.112 20.317-20.317 40.656-40.66 61.029-61.038l2.442 2.516-60.964 60.973c2.715 2.71 5.356 5.352 8.076 8.072.22-.213.52-.481.801-.763 10.583-10.583 21.209-21.118 31.727-31.766 5.677-5.746 12.341-6.971 19.646-4.3 8.193 2.997 13.302 8.986 14.857 17.637 1.052 5.872-.511 11.09-4.841 15.398-10.731 10.683-21.417 21.404-32.126 32.104-.294.295-.641.528-1.069.875 8.054 8.054 15.974 15.978 23.919 23.92-.866.801-1.671 1.541-2.58 2.381a369046 369046 0 0 1-60.986-60.986c-20.404 20.408-40.747 40.751-61.107 61.116l-2.443-2.516c20.309-20.308 40.63-40.634 60.947-60.951-.39-.706-6.53-6.95-8.002-8.145-.277.264-.576.537-.862.823-10.587 10.587-21.222 21.13-31.744 31.783-5.413 5.482-11.804 6.82-18.875 4.503C7.57 104.183 2.3 98.315.448 89.694c-1.13-5.252-.152-10.198 3.295-14.493.411-.511.875-.983 1.338-1.446Q21.207 57.62 37.34 41.486c.281-.285.562-.58.861-.883M122.428 89.2c.676.005 1.26-.558 1.291-1.238.025-.671-.533-1.264-1.217-1.295-.736-.03-1.351.555-1.338 1.278a1.29 1.29 0 0 0 1.264 1.255m-89.037-6.616a1.233 1.233 0 0 0 1.23-1.26 1.26 1.26 0 1 0-2.52.06c.026.693.585 1.213 1.29 1.2m89.219-6.976c.662.022 1.282-.554 1.316-1.221.035-.689-.61-1.36-1.299-1.351-.658.009-1.255.615-1.264 1.277-.009.667.58 1.273 1.247 1.295M34.829 67.77a1.247 1.247 0 0 0-1.19-1.307 1.254 1.254 0 0 0-1.33 1.169c-.048.719.533 1.368 1.243 1.377.666.008 1.251-.559 1.277-1.239m5.434 7.916c.698 0 1.243-.541 1.256-1.243.013-.71-.506-1.26-1.208-1.281a1.27 1.27 0 0 0-1.325 1.285 1.296 1.296 0 0 0 1.277 1.239m-13.605.208c.675.004 1.264-.559 1.286-1.23.022-.719-.584-1.316-1.316-1.295-.706.022-1.221.559-1.213 1.273a1.236 1.236 0 0 0 1.243 1.252m101.417 5.092c-.022.671.537 1.286 1.199 1.32.693.04 1.351-.588 1.347-1.29-.005-.675-.576-1.242-1.26-1.251a1.26 1.26 0 0 0-1.286 1.221m-12.385-1.013c-.684.022-1.247.602-1.234 1.277.009.658.611 1.26 1.269 1.265.706.008 1.312-.633 1.273-1.351a1.256 1.256 0 0 0-1.308-1.191"/><path fill="#A6C8FF" d="M34.617 28.734c-.606-.602-1.109-1.109-1.663-1.658q8.424-3.656 16.836-7.305v-3.824c-6.595 2.867-13.086 5.69-19.508 8.479-.91-.897-1.74-1.72-2.624-2.59.23-.13.45-.277.693-.38 16.281-7.09 32.563-14.17 48.835-21.27.598-.26 1.074-.239 1.659.012 16.251 7.067 32.511 14.121 48.766 21.175.251.108.498.234.862.407-.823.957-1.706 1.758-2.585 2.65l-19.711-8.543c-.074 1.337-.039 2.52-.026 3.788 5.651 2.438 11.297 4.876 16.914 7.301l-1.607 1.693c-2.598-1.117-5.265-2.269-7.933-3.42-11.54-4.972-23.08-9.938-34.61-14.931-.663-.286-1.192-.269-1.85.017-13.839 6.02-27.687 12.012-41.535 18.01-.32.142-.636.277-.913.39M79.127 8.04c8.279 3.568 16.48 7.102 24.846 10.704 0-1.134-.035-2.06.013-2.987.03-.611-.182-.918-.754-1.165-7.807-3.365-15.605-6.755-23.408-10.137-.208-.091-.438-.121-.702-.195.004 1.282.004 2.49.004 3.78m-2.291-3.867-24.743 10.77v3.836L76.836 8.062zM130.028 135.356c-2.114-.975-4.227-1.81-6.5-2.174-6.209-.992-11.956.069-16.909 4.126-1.763 1.442-3.365 3.092-4.963 4.725-1.892 1.931-3.654 3.983-5.55 5.906-2.677 2.715-5.66 5.066-9.306 6.292-9.254 3.109-17.763 1.818-25.21-4.733-1.789-1.576-3.387-3.369-5.05-5.084-1.684-1.745-3.286-3.572-5.014-5.265-2.685-2.633-5.75-4.711-9.453-5.603-5.365-1.287-10.582-.944-15.528 1.727a.8.8 0 0 1-.524.113c.165-.195.32-.399.498-.576 1.468-1.472 2.945-2.936 4.404-4.413.377-.381.762-.627 1.325-.71 7.171-1.061 13.736.329 19.412 4.971 1.871 1.529 3.56 3.287 5.257 5.01 2.014 2.049 3.893 4.235 5.932 6.262 2.534 2.52 5.426 4.572 8.925 5.503 7.006 1.862 13.558.988 19.29-3.706 1.867-1.529 3.534-3.317 5.227-5.045 1.771-1.806 3.421-3.728 5.201-5.521 2.962-2.988 6.33-5.378 10.397-6.655 3.905-1.226 7.88-1.46 11.907-.788.325.052.706.156.927.372 1.793 1.732 3.542 3.503 5.305 5.266"/><path fill="#A6C8FF" d="M62.612 36.455c-.035-8.505 6.832-15.42 15.345-15.45 8.492-.026 15.433 6.867 15.46 15.359.025 8.452-6.842 15.398-15.265 15.441-8.608.043-15.506-6.772-15.54-15.35m28.583-.009c.017-7.31-5.885-13.237-13.185-13.242-7.245-.004-13.195 5.902-13.23 13.12-.034 7.276 5.86 13.307 13.16 13.303 7.924-.009 13.337-6.504 13.255-13.18M77.533 134.637c-8.591-.234-15.61-7.66-14.879-16.697.633-7.79 7.288-14.424 15.918-14.095 8.838.338 15.307 7.79 14.81 16.277-.503 8.565-7.704 14.775-15.849 14.515m13.662-15.403c0-7.266-5.876-13.176-13.12-13.202-7.293-.026-13.273 5.893-13.294 13.163-.022 7.279 5.928 13.251 13.202 13.255 7.31.004 13.212-5.902 13.212-13.216"/><path fill="#A6C8FF" d="M77.992 42.448c-3.377-.005-6.04-2.694-6.028-6.075a6.014 6.014 0 0 1 6.102-6.01c3.295.025 5.992 2.736 5.997 6.031a6.047 6.047 0 0 1-6.071 6.054m3.85-5.967a3.83 3.83 0 0 0-3.746-3.919c-2.144-.056-3.95 1.689-3.962 3.832-.013 2.074 1.736 3.85 3.823 3.889 2.075.039 3.854-1.706 3.885-3.802M71.965 119.286a6.047 6.047 0 0 1 6.018-6.105c3.326-.018 6.08 2.732 6.08 6.066 0 3.326-2.784 6.093-6.093 6.063a6.056 6.056 0 0 1-6.005-6.024m9.877-.013c.013-2.126-1.672-3.858-3.78-3.884-2.14-.026-3.945 1.75-3.928 3.871.013 2.096 1.762 3.828 3.862 3.832a3.833 3.833 0 0 0 3.846-3.819"/><path fill="#A6C8FF" d="M80.78 36.394c-.133.251-.242.468-.359.671-1.082 1.906-1.082 1.893-3.286 1.776-.394-.022-.615-.17-.823-.49-1.195-1.84-1.195-2.082.017-3.914.213-.325.447-.455.832-.476 2.16-.113 2.16-.122 3.217 1.719.121.212.238.42.403.714m-2.818-1.316c-.706.017-1.32.65-1.312 1.342.009.74.688 1.36 1.442 1.312a1.317 1.317 0 0 0 1.238-1.39 1.34 1.34 0 0 0-1.368-1.264M79.439 121.603c-3.517.026-2.482.615-4.205-2.399.364-.632.727-1.329 1.16-1.983.126-.191.425-.351.654-.364.788-.043 1.576-.017 2.373-.017.476.827.918 1.598 1.377 2.399-.459.801-.905 1.572-1.36 2.364m-.113-2.312a1.33 1.33 0 0 0-1.256-1.386c-.745-.039-1.433.606-1.429 1.342 0 .684.645 1.33 1.334 1.343a1.36 1.36 0 0 0 1.35-1.299"/></svg>