<svg width="22" height="24" viewBox="0 0 22 24" fill="none" xmlns="http://www.w3.org/2000/svg">
<path fill-rule="evenodd" clip-rule="evenodd" d="M6.95439 0.0350845C3.11517 0.350874 0.901559 2.87719 1.10908 6.5614C1.17826 8.38596 1.93919 9.82456 3.32269 10.807L3.66857 11.0526L3.18434 11.2982C1.21285 12.3158 0.244395 13.7544 0.0368691 16C-0.309007 19.7544 1.80084 22.8772 5.43254 23.7193C6.6431 24 6.74687 24 12.7997 24H18.057L17.642 23.7193C16.6389 23.0175 15.7396 22.0702 15.1171 21.0526L14.9095 20.7368H11.4508C8.02661 20.7368 7.40403 20.7368 6.81604 20.5965C4.80996 20.2105 3.66857 18.8421 3.66857 16.7368C3.66857 14.6316 4.80996 13.5439 7.23109 13.1579C7.57697 13.1228 8.02661 13.0877 10.0673 13.0877H12.4538L12.4192 12.386C12.3846 11.7193 12.4538 10.386 12.4884 10.0702L12.523 9.92982H10.8974C8.40707 9.92982 7.57697 9.85965 6.81604 9.61403C5.5363 9.15789 4.84454 8.24561 4.80996 6.77193C4.74078 5.05263 5.46712 3.92982 6.95439 3.50877C7.74991 3.29825 7.74991 3.29824 11.2778 3.26315H14.4945V7.85965C14.4945 12.386 14.4945 13.193 14.5983 14.2456C15.0825 18.5614 16.8464 21.5088 19.8902 23.0877C20.1323 23.2281 20.3744 23.2982 20.3744 23.2982C20.4436 23.2632 22 20.5965 22 20.421C22 20.421 21.8271 20.2807 21.6887 20.2105C20.0631 19.4386 18.7142 17.5439 18.2991 15.5088C18.0224 14.0702 18.0224 13.614 18.0224 6.38596V0H12.6613C9.68681 0 7.12733 0.0350845 6.95439 0.0350845Z" fill="#ACA686"/>
</svg>
