<svg width="142" height="26" viewBox="0 0 142 26" fill="none" xmlns="http://www.w3.org/2000/svg">
<path fill-rule="evenodd" clip-rule="evenodd" d="M97.2937 0.0678807C94.6787 0.354456 92.3861 1.35747 90.3801 3.0411C85.6516 7.01734 84.6844 14.7907 88.2666 20.0924C92.3861 26.2537 101.915 27.0776 108.542 21.8835L109.007 21.4894V16.3669V11.2443H103.777H98.5833V13.0713V14.8982L101.7 14.934L104.816 14.9698L104.852 17.2624L104.888 19.555L104.494 19.8058C98.834 23.4954 91.8846 20.7013 90.8099 14.325C89.4129 6.05015 98.0101 0.855964 104.709 5.97851L105.461 6.55166L106.787 4.93967C107.539 4.04412 108.112 3.32768 108.112 3.29186C108.112 3.07693 105.784 1.57241 104.709 1.10672C102.739 0.282816 99.5863 -0.182873 97.2937 0.0678807ZM34.3545 12.6414V24.8925H43.4891H52.6237V22.9581V21.0237L45.6384 20.9879L38.6531 20.9521L38.6173 12.6056L38.5815 4.25905H45.5309H52.4804V2.28884V0.318633H43.4175H34.3545V12.6414ZM67.1674 12.6772V24.9642H69.3526H71.5377V12.6772V0.390282H69.3526H67.1674V12.6772ZM123.73 12.6414V24.8925H132.865H142V22.9581V21.0237L135.014 20.9879L128.029 20.9521L127.993 12.6056L127.957 4.25905H134.907H141.856V2.28884V0.318633H132.793H123.73V12.6414ZM40.695 12.5697V14.54H45.8175H50.9401V12.5697V10.5995H45.8175H40.695V12.5697ZM130.107 12.5697V14.54H135.229H140.352V12.5697V10.5995H135.229H130.107V12.5697Z" fill="#010101"/>
<path fill-rule="evenodd" clip-rule="evenodd" d="M7.20258 0.426444C3.22634 0.748841 0.933734 3.32803 1.14867 7.08933C1.22031 8.95207 2.00839 10.4208 3.44127 11.4238L3.79949 11.6745L3.29798 11.9253C1.25613 12.9641 0.253117 14.4328 0.0381849 16.7254C-0.320035 20.5584 1.8651 23.7465 5.62641 24.6063C6.88018 24.8929 6.98765 24.8928 13.2565 24.8928H18.7014L18.2716 24.6063C17.2327 23.8898 16.3014 22.9226 15.6566 21.8838L15.4416 21.5614H11.8594C8.31306 21.5614 7.66826 21.5614 7.05929 21.4181C4.98162 21.0241 3.79949 19.627 3.79949 17.4777C3.79949 15.3284 4.98161 14.2179 7.48915 13.8239C7.84737 13.788 8.31306 13.7522 10.4266 13.7522H12.8983L12.8624 13.0358C12.8266 12.3552 12.8983 10.9939 12.9341 10.6715L12.9699 10.5282H11.2863C8.7071 10.5282 7.84737 10.4566 7.05929 10.2058C5.73388 9.74016 5.01744 8.80878 4.98161 7.30426C4.90997 5.54898 5.66223 4.40269 7.20258 3.97282C8.02648 3.75789 8.02648 3.75789 11.6803 3.72206H15.0118V8.41474C15.0118 13.0358 15.0118 13.8597 15.1192 14.9343C15.6207 19.3404 17.4477 22.3495 20.6 23.9615C20.8507 24.1048 21.1015 24.1764 21.1015 24.1764C21.1731 24.1406 22.7851 21.4181 22.7851 21.239C22.7851 21.239 22.606 21.0957 22.4627 21.0241C20.7791 20.236 19.382 18.3016 18.9522 16.2239C18.6656 14.7552 18.6656 14.2895 18.6656 6.91022V0.390625H13.1132C10.0325 0.390625 7.38169 0.426444 7.20258 0.426444Z" fill="black"/>
</svg>
