<svg width="32" height="32" viewBox="0 0 32 32" fill="none" xmlns="http://www.w3.org/2000/svg">
<circle cx="16" cy="16" r="15.5" fill="white" stroke="#EEEBD9"/>
<g clip-path="url(#clip0_1263_996)">
<path d="M19.1144 21.1899L17.4355 20.1953" stroke="white" stroke-miterlimit="10" strokeLinecap="round" strokeLinejoin="round"/>
<path d="M18.0698 21.9437L16.8328 21.2108" stroke="white" stroke-miterlimit="10" strokeLinecap="round" strokeLinejoin="round"/>
<path d="M16.8037 22.5662L16.319 22.2791" stroke="white" stroke-miterlimit="10" strokeLinecap="round" strokeLinejoin="round"/>
<mask id="mask0_1263_996" style="mask-type:luminance" maskUnits="userSpaceOnUse" x="8" y="8" width="16" height="16">
<path d="M8 8H24V24H8V8Z" fill="white"/>
</mask>
<g mask="url(#mask0_1263_996)">
<path d="M15.9741 17.0685L15.8888 17.018C15.3984 16.7366 15.169 16.6845 14.7265 16.8556L14.2443 17.042C13.9508 17.1555 13.6215 17.1281 13.3508 16.9677L13.0526 16.7919" stroke="#ACA686" stroke-miterlimit="10" strokeLinecap="round" strokeLinejoin="round"/>
<path d="M11.2051 19.8785L11.7048 20.1734" stroke="white" stroke-miterlimit="10" strokeLinecap="round" strokeLinejoin="round"/>
<path d="M15.4017 23.1084L16.2018 23.5824C16.4823 23.7486 16.8445 23.6559 17.0108 23.3753C17.177 23.0947 17.0843 22.7325 16.8037 22.5663L17.4678 22.9597C17.7484 23.1259 18.1106 23.0333 18.2768 22.7526C18.443 22.4721 18.3503 22.1099 18.0698 21.9436L18.5125 22.2059C18.793 22.3721 19.1553 22.2795 19.3215 21.9989V21.9989C19.4877 21.7183 19.395 21.3561 19.1145 21.1899L19.6562 21.5109C19.9368 21.6771 20.299 21.5844 20.4652 21.3038C20.6314 21.0233 20.5387 20.6611 20.2581 20.4949" stroke="#ACA686" stroke-miterlimit="10" strokeLinecap="round" strokeLinejoin="round"/>
<path d="M19.0181 16.9273L18.9485 16.9677C18.6778 17.1281 18.3486 17.1555 18.0551 17.0421L17.5113 16.8284C17.3412 16.7616 17.1544 16.7497 16.9772 16.7946L16.1439 17.0055C15.756 17.1037 15.4843 17.4527 15.4843 17.8528V18.9652C15.4843 19.1224 15.6118 19.2503 15.769 19.2505C16.2433 19.2508 16.6279 18.8664 16.6279 18.3922V18.3451L20.1946 20.4573C20.2607 20.3869 20.3364 20.326 20.4198 20.2767L20.8811 20.0071" stroke="#ACA686" stroke-miterlimit="10" strokeLinecap="round" strokeLinejoin="round"/>
<path d="M12.2696 21.3977C12.0795 21.6625 11.7106 21.7231 11.4458 21.533C11.181 21.3428 11.1204 20.974 11.3106 20.7092L11.6449 20.2434C11.8351 19.9785 12.2039 19.918 12.4687 20.1081C12.7336 20.2982 12.7941 20.6671 12.604 20.9319" stroke="#ACA686" stroke-miterlimit="10" strokeLinecap="round" strokeLinejoin="round"/>
<path d="M13.9321 21.1064L13.2287 22.0862C13.0385 22.3511 12.6697 22.4116 12.4048 22.2215C12.14 22.0314 12.0794 21.6625 12.2696 21.3977L12.973 20.4179C13.1632 20.153 13.532 20.0925 13.7968 20.2826C14.0617 20.4727 14.1222 20.8415 13.9321 21.1064Z" stroke="#ACA686" stroke-miterlimit="10" strokeLinecap="round" strokeLinejoin="round"/>
<path d="M13.9321 21.1064C14.1222 20.8416 14.4911 20.781 14.7559 20.9711C15.0208 21.1613 15.0813 21.5301 14.8912 21.795L14.1878 22.7748C13.9976 23.0396 13.6288 23.1002 13.364 22.9101C13.0991 22.7199 13.0386 22.3511 13.2287 22.0862" stroke="#ACA686" stroke-miterlimit="10" strokeLinecap="round" strokeLinejoin="round"/>
<path d="M14.5786 22.2303C14.7687 21.9655 15.1376 21.9049 15.4024 22.095C15.6673 22.2852 15.7278 22.654 15.5377 22.9189L15.3038 23.2447C15.1136 23.5095 14.7448 23.5701 14.48 23.38C14.2151 23.1898 14.1546 22.821 14.3447 22.5562" stroke="#ACA686" stroke-miterlimit="10" strokeLinecap="round" strokeLinejoin="round"/>
<path d="M14.8412 9.48059V8.87484C14.8412 8.57678 15.0828 8.33515 15.3808 8.33515H16.6192C16.9173 8.33515 17.1588 8.57678 17.1588 8.87484V9.48059" stroke="#ACA686" stroke-miterlimit="10" strokeLinecap="round" strokeLinejoin="round"/>
<path d="M14.2573 11.0876V12.072" stroke="#ACA686" stroke-miterlimit="10" strokeLinecap="round" strokeLinejoin="round"/>
<path d="M17.7427 11.0876V12.072" stroke="#ACA686" stroke-miterlimit="10" strokeLinecap="round" strokeLinejoin="round"/>
<path d="M22.9856 19.3972L23.4287 19.133C23.6376 19.0085 23.7656 18.7832 23.7656 18.54V13.8472C23.7656 13.6409 23.5409 13.5133 23.3637 13.6189L19.1596 16.1248C18.9233 16.2656 18.8456 16.5712 18.9858 16.808L20.9082 20.0528C21.0489 20.2905 21.3559 20.3686 21.5932 20.2272L22.037 19.9627" stroke="#ACA686" stroke-miterlimit="10" strokeLinecap="round" strokeLinejoin="round"/>
<path d="M8.63628 13.6189L12.8403 16.1248C13.0767 16.2656 13.1545 16.5713 13.0142 16.808L11.0918 20.0529C10.9511 20.2905 10.6441 20.3686 10.4068 20.2272L8.57125 19.133C8.36234 19.0085 8.23438 18.7833 8.23438 18.5401V13.8472C8.23438 13.6409 8.45912 13.5133 8.63628 13.6189Z" stroke="#ACA686" stroke-miterlimit="10" strokeLinecap="round" strokeLinejoin="round"/>
<path d="M12.6655 11.8896V10.1285C12.6655 9.77067 12.9556 9.48061 13.3134 9.48061H18.6867C19.0445 9.48061 19.3346 9.77067 19.3346 10.1285V13.3255C19.3346 13.6833 19.0445 13.9734 18.6867 13.9734H13.3134C12.9556 13.9734 12.6655 13.6833 12.6655 13.3255V12.9854" stroke="#ACA686" stroke-miterlimit="10" strokeLinecap="round" strokeLinejoin="round"/>
<path d="M12.6655 10.4058C12.6655 11.0542 13.1911 11.5798 13.8395 11.5798H18.1605C18.8089 11.5798 19.3346 11.0542 19.3346 10.4058" stroke="#ACA686" stroke-miterlimit="10" strokeLinecap="round" strokeLinejoin="round"/>
</g>
</g>
<defs>
<clipPath id="clip0_1263_996">
<rect width="16" height="16" fill="white" transform="translate(8 8)"/>
</clipPath>
</defs>
</svg>
