<svg width="40" height="40" viewBox="0 0 40 40" fill="none" xmlns="http://www.w3.org/2000/svg">
<rect width="40" height="40" rx="12" fill="#FFE1E2"/>
<path d="M19.7273 23.253C19.8159 23.253 19.8929 23.288 19.9583 23.358L20.6093 24.065C20.1986 24.5597 19.6946 24.9423 19.0973 25.213C18.4999 25.479 17.7859 25.612 16.9553 25.612C16.2179 25.612 15.5506 25.486 14.9533 25.234C14.3606 24.9773 13.8543 24.6227 13.4343 24.17C13.0143 23.7127 12.6899 23.169 12.4613 22.539C12.2373 21.909 12.1253 21.216 12.1253 20.46C12.1253 19.704 12.2443 19.011 12.4823 18.381C12.7249 17.7463 13.0633 17.2027 13.4973 16.75C13.9359 16.2927 14.4586 15.938 15.0653 15.686C15.6766 15.434 16.3486 15.308 17.0813 15.308C17.8093 15.308 18.4509 15.427 19.0063 15.665C19.5663 15.8983 20.0516 16.211 20.4623 16.603L19.9233 17.366C19.8859 17.4173 19.8416 17.4617 19.7903 17.499C19.7389 17.5363 19.6689 17.555 19.5803 17.555C19.4869 17.555 19.3796 17.513 19.2583 17.429C19.1416 17.3403 18.9899 17.2447 18.8033 17.142C18.6213 17.0347 18.3903 16.939 18.1103 16.855C17.8349 16.7663 17.4896 16.722 17.0743 16.722C16.5936 16.722 16.1526 16.806 15.7513 16.974C15.3499 17.142 15.0046 17.387 14.7153 17.709C14.4259 18.031 14.1996 18.423 14.0363 18.885C13.8776 19.347 13.7983 19.872 13.7983 20.46C13.7983 21.0527 13.8823 21.5823 14.0503 22.049C14.2183 22.511 14.4493 22.903 14.7433 23.225C15.0373 23.5423 15.3826 23.785 15.7793 23.953C16.1759 24.121 16.6029 24.205 17.0603 24.205C17.3403 24.205 17.5899 24.191 17.8093 24.163C18.0333 24.1303 18.2386 24.0813 18.4253 24.016C18.6119 23.946 18.7869 23.8597 18.9503 23.757C19.1183 23.6543 19.2839 23.5283 19.4473 23.379C19.5406 23.295 19.6339 23.253 19.7273 23.253ZM27.2951 17.142C27.2438 17.226 27.1901 17.289 27.1341 17.331C27.0781 17.3683 27.0081 17.387 26.9241 17.387C26.8355 17.387 26.7351 17.3497 26.6231 17.275C26.5158 17.2003 26.3805 17.1187 26.2171 17.03C26.0585 16.9367 25.8695 16.8527 25.6501 16.778C25.4308 16.6987 25.1695 16.659 24.8661 16.659C24.5861 16.659 24.3388 16.694 24.1241 16.764C23.9141 16.834 23.7368 16.932 23.5921 17.058C23.4475 17.184 23.3378 17.3333 23.2631 17.506C23.1931 17.674 23.1581 17.8583 23.1581 18.059C23.1581 18.3157 23.2258 18.5303 23.3611 18.703C23.4965 18.871 23.6738 19.0157 23.8931 19.137C24.1171 19.2583 24.3715 19.3657 24.6561 19.459C24.9408 19.5477 25.2301 19.6433 25.5241 19.746C25.8228 19.8487 26.1145 19.9653 26.3991 20.096C26.6838 20.2267 26.9358 20.3923 27.1551 20.593C27.3791 20.7937 27.5588 21.0387 27.6941 21.328C27.8295 21.6173 27.8971 21.9697 27.8971 22.385C27.8971 22.833 27.8201 23.253 27.6661 23.645C27.5121 24.037 27.2881 24.38 26.9941 24.674C26.7048 24.9633 26.3455 25.192 25.9161 25.36C25.4915 25.528 25.0061 25.612 24.4601 25.612C24.1381 25.612 23.8231 25.5793 23.5151 25.514C23.2118 25.4533 22.9201 25.367 22.6401 25.255C22.3648 25.1383 22.1058 24.9983 21.8631 24.835C21.6205 24.6717 21.4035 24.4897 21.2121 24.289L21.6881 23.505C21.7301 23.4397 21.7838 23.3883 21.8491 23.351C21.9145 23.3137 21.9868 23.295 22.0661 23.295C22.1735 23.295 22.2925 23.3463 22.4231 23.449C22.5538 23.547 22.7101 23.6567 22.8921 23.778C23.0788 23.8947 23.3028 24.0043 23.5641 24.107C23.8255 24.205 24.1381 24.254 24.5021 24.254C25.0948 24.254 25.5521 24.1093 25.8741 23.82C26.2008 23.5307 26.3641 23.1317 26.3641 22.623C26.3641 22.3383 26.2965 22.1073 26.1611 21.93C26.0258 21.748 25.8461 21.5963 25.6221 21.475C25.4028 21.3537 25.1508 21.251 24.8661 21.167C24.5815 21.083 24.2921 20.9943 23.9981 20.901C23.7041 20.803 23.4148 20.691 23.1301 20.565C22.8455 20.4343 22.5911 20.2663 22.3671 20.061C22.1478 19.851 21.9705 19.5943 21.8351 19.291C21.6998 18.983 21.6321 18.6003 21.6321 18.143C21.6321 17.779 21.7021 17.4267 21.8421 17.086C21.9868 16.7453 22.1945 16.4443 22.4651 16.183C22.7405 15.917 23.0788 15.7047 23.4801 15.546C23.8815 15.3873 24.3388 15.308 24.8521 15.308C25.4308 15.308 25.9605 15.399 26.4411 15.581C26.9265 15.763 27.3441 16.022 27.6941 16.358L27.2951 17.142Z" fill="#F64747"/>
</svg>
