<svg width="63" height="63" viewBox="0 0 63 63" fill="none" xmlns="http://www.w3.org/2000/svg">
<rect width="63" height="63" fill="#FAF5F0"/>
<g clip-path="url(#clip0_1120_4778)">
<path d="M49.5855 17.6399H47.171V24.8834H52V20.0544C52 18.7208 50.9191 17.6399 49.5855 17.6399Z" fill="#FFA436"/>
<path d="M49.5855 20.0543L42.3421 29.7122H12V15.2253C12 13.8917 13.0809 12.8108 14.4145 12.8108H26.1706C26.8113 12.8108 27.4254 13.0651 27.8785 13.5182L32 17.6398H47.171C48.5046 17.6398 49.5855 18.7206 49.5855 20.0543Z" fill="#FFBC2B"/>
<path d="M47.171 20.0542L42.342 26.0904H49.5855V20.0542H47.171Z" fill="#8AE7FF"/>
<path d="M47.1711 20.0542V32.1266L14.4146 22.4687V20.0542H47.1711Z" fill="#BDF2FF"/>
<path d="M14.4146 22.4688H37.8294V29.7122H14.4146V22.4688Z" fill="white"/>
<path d="M49.5855 22.4688L47.171 24.8832V49.1891H49.5855C50.9191 49.1891 52 48.1082 52 46.7746V24.8832C52 23.5496 50.9191 22.4688 49.5855 22.4688Z" fill="#FFBC2B"/>
<path d="M49.5855 22.4688V46.7746C49.5855 48.1082 48.5046 49.1891 47.171 49.1891H14.4145C13.0809 49.1891 12 48.1082 12 46.7746V29.7122C12 28.3786 13.0809 27.2977 14.4145 27.2977H32L36.1215 23.1762C36.5746 22.7231 37.1887 22.4688 37.8294 22.4688H49.5855Z" fill="#FFCF66"/>
</g>
<defs>
<clipPath id="clip0_1120_4778">
<rect width="40" height="40" fill="white" transform="translate(12 11)"/>
</clipPath>
</defs>
</svg>
