<svg width="40" height="40" viewBox="0 0 40 40" fill="none" xmlns="http://www.w3.org/2000/svg">
<rect width="40" height="40" rx="12" fill="#FFE1E2"/>
<path d="M17.0041 25.5H15.3591V15.42H17.0041V25.5ZM24.6633 17.142C24.612 17.226 24.5583 17.289 24.5023 17.331C24.4463 17.3683 24.3763 17.387 24.2923 17.387C24.2036 17.387 24.1033 17.3497 23.9913 17.275C23.884 17.2003 23.7486 17.1187 23.5853 17.03C23.4266 16.9367 23.2376 16.8527 23.0183 16.778C22.799 16.6987 22.5376 16.659 22.2343 16.659C21.9543 16.659 21.707 16.694 21.4923 16.764C21.2823 16.834 21.105 16.932 20.9603 17.058C20.8156 17.184 20.706 17.3333 20.6313 17.506C20.5613 17.674 20.5263 17.8583 20.5263 18.059C20.5263 18.3157 20.594 18.5303 20.7293 18.703C20.8646 18.871 21.042 19.0157 21.2613 19.137C21.4853 19.2583 21.7396 19.3657 22.0243 19.459C22.309 19.5477 22.5983 19.6433 22.8923 19.746C23.191 19.8487 23.4826 19.9653 23.7673 20.096C24.052 20.2267 24.304 20.3923 24.5233 20.593C24.7473 20.7937 24.927 21.0387 25.0623 21.328C25.1976 21.6173 25.2653 21.9697 25.2653 22.385C25.2653 22.833 25.1883 23.253 25.0343 23.645C24.8803 24.037 24.6563 24.38 24.3623 24.674C24.073 24.9633 23.7136 25.192 23.2843 25.36C22.8596 25.528 22.3743 25.612 21.8283 25.612C21.5063 25.612 21.1913 25.5793 20.8833 25.514C20.58 25.4533 20.2883 25.367 20.0083 25.255C19.733 25.1383 19.474 24.9983 19.2313 24.835C18.9886 24.6717 18.7716 24.4897 18.5803 24.289L19.0563 23.505C19.0983 23.4397 19.152 23.3883 19.2173 23.351C19.2826 23.3137 19.355 23.295 19.4343 23.295C19.5416 23.295 19.6606 23.3463 19.7913 23.449C19.922 23.547 20.0783 23.6567 20.2603 23.778C20.447 23.8947 20.671 24.0043 20.9323 24.107C21.1936 24.205 21.5063 24.254 21.8703 24.254C22.463 24.254 22.9203 24.1093 23.2423 23.82C23.569 23.5307 23.7323 23.1317 23.7323 22.623C23.7323 22.3383 23.6646 22.1073 23.5293 21.93C23.394 21.748 23.2143 21.5963 22.9903 21.475C22.771 21.3537 22.519 21.251 22.2343 21.167C21.9496 21.083 21.6603 20.9943 21.3663 20.901C21.0723 20.803 20.783 20.691 20.4983 20.565C20.2136 20.4343 19.9593 20.2663 19.7353 20.061C19.516 19.851 19.3386 19.5943 19.2033 19.291C19.068 18.983 19.0003 18.6003 19.0003 18.143C19.0003 17.779 19.0703 17.4267 19.2103 17.086C19.355 16.7453 19.5626 16.4443 19.8333 16.183C20.1086 15.917 20.447 15.7047 20.8483 15.546C21.2496 15.3873 21.707 15.308 22.2203 15.308C22.799 15.308 23.3286 15.399 23.8093 15.581C24.2946 15.763 24.7123 16.022 25.0623 16.358L24.6633 17.142Z" fill="#F64747"/>
</svg>
