<svg width="32" height="32" viewBox="0 0 32 32" fill="none" xmlns="http://www.w3.org/2000/svg">
<circle cx="16" cy="16" r="15.5" fill="white" stroke="#EEEBD9"/>
<g clip-path="url(#clip0_1263_1200)">
<path d="M21.6666 18.3229C20.3792 18.3229 19.3334 17.2771 19.3334 15.9896C19.3334 14.702 20.3792 13.6562 21.6666 13.6562C22.9542 13.6562 24 14.702 24 15.9896C24 17.2771 22.9542 18.3229 21.6666 18.3229ZM21.6666 14.3229C20.7458 14.3229 20 15.0687 20 15.9896C20 16.9104 20.7458 17.6562 21.6666 17.6562C22.5875 17.6562 23.3334 16.9104 23.3334 15.9896C23.3334 15.0687 22.5875 14.3229 21.6666 14.3229Z" fill="#ACA686"/>
<path d="M16 18.3229C14.7125 18.3229 13.6666 17.2771 13.6666 15.9896C13.6666 14.702 14.7125 13.6562 16 13.6562C17.2875 13.6562 18.3334 14.702 18.3334 15.9896C18.3334 17.2771 17.2875 18.3229 16 18.3229ZM16 14.3229C15.0792 14.3229 14.3334 15.0687 14.3334 15.9896C14.3334 16.9104 15.0792 17.6562 16 17.6562C16.9208 17.6562 17.6666 16.9104 17.6666 15.9896C17.6666 15.0687 16.9208 14.3229 16 14.3229Z" fill="#ACA686"/>
<path d="M10.3334 18.3229C9.04578 18.3229 8 17.2771 8 15.9896C8 14.702 9.04578 13.6562 10.3334 13.6562C11.6208 13.6562 12.6666 14.702 12.6666 15.9896C12.6666 17.2771 11.6208 18.3229 10.3334 18.3229ZM10.3334 14.3229C9.41248 14.3229 8.66663 15.0687 8.66663 15.9896C8.66663 16.9104 9.41248 17.6562 10.3334 17.6562C11.2542 17.6562 12 16.9104 12 15.9896C12 15.0687 11.2542 14.3229 10.3334 14.3229Z" fill="#ACA686"/>
</g>
<defs>
<clipPath id="clip0_1263_1200">
<rect width="16" height="16" fill="white" transform="translate(8 8)"/>
</clipPath>
</defs>
</svg>
