<svg width="32" height="32" viewBox="0 0 32 32" fill="none" xmlns="http://www.w3.org/2000/svg">
<circle cx="16" cy="16" r="15.5" fill="white" stroke="#EEEBD9"/>
<path d="M22.2266 23.1885L21.9676 20.7546C21.9268 20.3759 21.7699 20.019 21.5183 19.7329C21.2668 19.4468 20.9329 19.2455 20.5625 19.1565L17.6948 18.4715L17.5986 17.3391C18.268 16.8229 18.7703 16.1208 19.0428 15.3205C19.0791 15.3231 19.1155 15.3259 19.1509 15.3259C19.3153 15.331 19.4788 15.2991 19.6293 15.2324C19.7797 15.1658 19.9132 15.0662 20.0199 14.9409C20.1491 14.7852 20.2365 14.5991 20.2738 14.4003C20.3112 14.2014 20.2973 13.9964 20.2334 13.8044C20.1986 13.702 20.1426 13.6082 20.0688 13.5291C19.9951 13.45 19.9054 13.3875 19.8058 13.3456C19.7979 13.3424 19.79 13.3403 19.7821 13.3374V12.0829C19.7821 8.60977 16.493 8.56964 16.4599 8.56964H12.7688C12.7107 8.56964 12.6551 8.59269 12.6141 8.63371C12.5731 8.67474 12.55 8.73038 12.55 8.78839C12.5531 9.01999 12.6053 9.2483 12.7032 9.45821C12.8011 9.66812 12.9425 9.85484 13.118 10.006C12.8435 10.1738 12.6166 10.4092 12.459 10.6897C12.3014 10.9702 12.2184 11.2864 12.218 11.6081V13.3375C12.2101 13.3404 12.2021 13.3425 12.1943 13.3458C12.0946 13.3876 12.0049 13.4502 11.9312 13.5292C11.8575 13.6083 11.8014 13.7021 11.7666 13.8045C11.7028 13.9965 11.6889 14.2016 11.7262 14.4004C11.7636 14.5992 11.851 14.7853 11.9801 14.941C12.0868 15.0663 12.2203 15.166 12.3708 15.2326C12.5212 15.2993 12.6848 15.3312 12.8493 15.326C12.8846 15.326 12.921 15.3233 12.9574 15.3206C13.2298 16.1209 13.7322 16.8231 14.4016 17.3394L14.3054 18.4716L11.4375 19.1565C11.0671 19.2455 10.7333 19.4468 10.4817 19.7329C10.2302 20.019 10.0733 20.3759 10.0325 20.7546L9.77338 23.1885C9.76725 23.2462 9.7843 23.304 9.82078 23.3492C9.85725 23.3943 9.91016 23.4231 9.96788 23.4293C9.97575 23.43 9.9835 23.4304 9.99125 23.4304C10.0452 23.4303 10.0972 23.4103 10.1373 23.3742C10.1774 23.3381 10.2027 23.2885 10.2085 23.2349L10.4676 20.801C10.4987 20.5121 10.6184 20.2399 10.8102 20.0217C11.0021 19.8035 11.2567 19.6499 11.5393 19.582L13.2035 19.1845L12.691 21.6564C12.6832 21.6943 12.6856 21.7336 12.6979 21.7703C12.7102 21.807 12.732 21.8398 12.7612 21.8653C12.7903 21.8908 12.8257 21.9081 12.8637 21.9155C12.9017 21.9229 12.941 21.92 12.9775 21.9073L14.2911 21.4465V23.2116C14.2911 23.2697 14.3142 23.3253 14.3552 23.3663C14.3962 23.4073 14.4519 23.4304 14.5099 23.4304C14.5679 23.4304 14.6235 23.4073 14.6646 23.3663C14.7056 23.3253 14.7286 23.2697 14.7286 23.2116V19.7854C14.8882 19.965 15.084 20.1087 15.3031 20.2072C15.5223 20.3056 15.7598 20.3565 16 20.3565C16.2402 20.3565 16.4777 20.3056 16.6969 20.2072C16.916 20.1087 17.1118 19.965 17.2714 19.7854V23.2116C17.2714 23.2697 17.2944 23.3253 17.3354 23.3663C17.3765 23.4073 17.4321 23.4304 17.4901 23.4304C17.5481 23.4304 17.6038 23.4073 17.6448 23.3663C17.6858 23.3253 17.7089 23.2697 17.7089 23.2116V21.4465L19.0225 21.9073C19.0591 21.9201 19.0984 21.923 19.1364 21.9156C19.1745 21.9083 19.2099 21.891 19.239 21.8655C19.2682 21.8399 19.29 21.8071 19.3023 21.7704C19.3147 21.7337 19.317 21.6943 19.3091 21.6564L18.7966 19.1845L20.4609 19.582C20.7434 19.6499 20.998 19.8035 21.1899 20.0217C21.3818 20.2399 21.5015 20.5121 21.5326 20.801L21.7916 23.2349C21.7974 23.2885 21.8227 23.3382 21.8628 23.3742C21.9029 23.4103 21.9549 23.4303 22.0089 23.4304C22.0166 23.4304 22.0244 23.4304 22.0324 23.4293C22.0901 23.4231 22.1429 23.3943 22.1794 23.3491C22.2158 23.304 22.2328 23.2462 22.2266 23.1885ZM19.825 13.9599C19.8612 14.0791 19.8673 14.2053 19.843 14.3274C19.8186 14.4495 19.7644 14.5638 19.6853 14.6599C19.6214 14.7338 19.542 14.7925 19.4528 14.832C19.3635 14.8715 19.2666 14.8907 19.169 14.8883C19.2561 14.5163 19.3037 14.1363 19.3111 13.7544C19.4197 13.7196 19.5363 13.7189 19.6453 13.7526C19.6883 13.7724 19.7266 13.8011 19.7576 13.8368C19.7886 13.8726 19.8116 13.9145 19.825 13.9599ZM13.6125 10.2526C13.6523 10.2383 13.6871 10.2128 13.7128 10.1791C13.7384 10.1454 13.7537 10.1051 13.7569 10.0629C13.76 10.0207 13.7509 9.97846 13.7306 9.94134C13.7103 9.90421 13.6797 9.87375 13.6425 9.85364C13.4849 9.76308 13.3474 9.64129 13.2384 9.49573C13.1295 9.35018 13.0514 9.18392 13.009 9.00714H16.4603C16.578 9.00714 19.345 9.04202 19.345 12.0829V13.3C19.2793 13.3096 19.2145 13.3243 19.1511 13.3441L18.7443 12.9339C18.5429 12.7299 18.4136 12.4657 18.3763 12.1815L18.2723 11.3794C18.2682 11.3486 18.2576 11.3191 18.2413 11.2928C18.2249 11.2664 18.2031 11.2438 18.1774 11.2265C18.1516 11.2092 18.1225 11.1976 18.0919 11.1924C18.0614 11.1872 18.03 11.1886 18 11.1964C17.3437 11.3436 16.6726 11.4147 16 11.4083C15.3274 11.4142 14.6563 11.3429 14 11.1958C13.9699 11.1879 13.9386 11.1866 13.9079 11.1918C13.8773 11.1971 13.8482 11.2087 13.8224 11.2261C13.7967 11.2435 13.7749 11.2661 13.7586 11.2926C13.7423 11.319 13.7318 11.3486 13.7278 11.3794L13.6239 12.1814C13.5864 12.4657 13.4571 12.7299 13.2556 12.9339L12.85 13.3445C12.7866 13.3248 12.7217 13.3101 12.656 13.3005V11.6081C12.6564 11.3112 12.7485 11.0216 12.9197 10.779C13.0909 10.5364 13.3329 10.3525 13.6125 10.2526ZM12.3151 14.6595C12.236 14.5634 12.1818 14.4492 12.1574 14.327C12.1331 14.2049 12.1393 14.0787 12.1755 13.9595C12.1889 13.9141 12.2119 13.8721 12.2429 13.8363C12.2739 13.8005 12.3122 13.7717 12.3553 13.752C12.4641 13.7184 12.5807 13.719 12.6893 13.7539C12.6968 14.1358 12.7445 14.5158 12.8315 14.8876C12.7339 14.8901 12.637 14.8709 12.5477 14.8315C12.4585 14.792 12.379 14.7333 12.3151 14.6595ZM13.125 13.6884L13.5671 13.2425C13.836 12.9703 14.0086 12.6176 14.0584 12.2381L14.1316 11.6733C14.7475 11.7902 15.3731 11.848 16 11.8458C16.627 11.848 17.2528 11.7902 17.8688 11.6733L17.942 12.2381C17.9918 12.6176 18.1643 12.9703 18.4333 13.2425L18.875 13.6884C18.8401 15.9668 17.4704 17.0074 16.65 17.4266C16.4487 17.5292 16.2259 17.5826 16 17.5826C15.7741 17.5826 15.5513 17.5292 15.35 17.4266C14.5293 17.0074 13.1595 15.9668 13.125 13.6884ZM13.1983 21.3664L13.6733 19.0723L14.291 18.9248V20.9829L13.1983 21.3664ZM16 19.919C15.664 19.9186 15.3417 19.7853 15.1036 19.5482C14.8655 19.3111 14.7308 18.9894 14.7289 18.6534L14.8164 17.6273C14.9338 17.6999 15.0466 17.7629 15.1511 17.8163C15.4141 17.9502 15.7051 18.02 16.0002 18.02C16.2953 18.02 16.5863 17.9502 16.8493 17.8163C16.9538 17.7629 17.0666 17.6999 17.1841 17.6273L17.2716 18.6538C17.2697 18.9898 17.1349 19.3115 16.8967 19.5486C16.6584 19.7856 16.3361 19.9188 16 19.919ZM18.8021 21.3664L17.7089 20.9829V18.925L18.3265 19.0725L18.8021 21.3664Z" fill="#ACA686" stroke="#ACA686" strokeWidth="0.3"/>
<path d="M16.9147 16.0625C16.9654 16.0341 17.0026 15.9866 17.0183 15.9307C17.0339 15.8748 17.0267 15.8149 16.9982 15.7643C16.9698 15.7137 16.9223 15.6764 16.8664 15.6608C16.8105 15.6451 16.7506 15.6523 16.7 15.6808C16.4806 15.7813 16.2412 15.8304 16 15.8242C15.7591 15.8304 15.52 15.7816 15.3007 15.6815C15.2502 15.653 15.1904 15.6456 15.1345 15.6611C15.0785 15.6767 15.0311 15.7138 15.0025 15.7643C14.9739 15.8148 14.9666 15.8746 14.9821 15.9305C14.9976 15.9865 15.0347 16.034 15.0852 16.0625C15.3698 16.2011 15.6835 16.2694 16 16.2617C16.3164 16.2693 16.6301 16.2011 16.9147 16.0625Z" fill="#ACA686" stroke="#ACA686" strokeWidth="0.3"/>
<path d="M15.1327 13.4401C15.1761 13.4787 15.2329 13.4986 15.2909 13.4952C15.3488 13.4919 15.403 13.4657 15.4416 13.4224C15.4802 13.3791 15.5 13.3222 15.4967 13.2643C15.4934 13.2063 15.4672 13.1521 15.4239 13.1135C15.2412 12.9686 15.0128 12.8937 14.7797 12.9021C14.5467 12.8937 14.3183 12.9686 14.1356 13.1135C14.0935 13.1519 14.0682 13.2053 14.0652 13.2622C14.0621 13.3191 14.0816 13.3749 14.1194 13.4175C14.1575 13.4605 14.2109 13.487 14.2682 13.4913C14.3256 13.4956 14.3823 13.4773 14.4264 13.4404C14.5324 13.3746 14.6548 13.3398 14.7796 13.3398C14.9044 13.3398 15.0267 13.3746 15.1327 13.4404V13.4401Z" fill="#ACA686" stroke="#ACA686" strokeWidth="0.3"/>
<path d="M15.0817 14.0259C15.0817 13.9662 15.064 13.9078 15.0308 13.8581C14.9977 13.8085 14.9505 13.7698 14.8954 13.7469C14.8402 13.724 14.7795 13.718 14.721 13.7297C14.6624 13.7413 14.6086 13.77 14.5664 13.8123C14.5241 13.8545 14.4954 13.9083 14.4837 13.9668C14.4721 14.0254 14.478 14.0861 14.5009 14.1412C14.5237 14.1964 14.5624 14.2436 14.6121 14.2767C14.6617 14.3099 14.7201 14.3276 14.7798 14.3276C14.8598 14.3276 14.9366 14.2958 14.9932 14.2393C15.0498 14.1827 15.0816 14.1059 15.0817 14.0259Z" fill="#ACA686" stroke="#ACA686" strokeWidth="0.3"/>
<path d="M16.8669 13.4404C16.9729 13.3746 17.0953 13.3398 17.22 13.3398C17.3448 13.3398 17.4671 13.3746 17.5732 13.4404C17.6165 13.479 17.6733 13.4988 17.7313 13.4955C17.7892 13.4922 17.8434 13.466 17.882 13.4226C17.9206 13.3793 17.9405 13.3224 17.9371 13.2645C17.9338 13.2066 17.9076 13.1524 17.8643 13.1138C17.6776 12.9765 17.4519 12.9025 17.2202 12.9025C16.9885 12.9025 16.7629 12.9765 16.5762 13.1138C16.534 13.1521 16.5087 13.2055 16.5057 13.2624C16.5026 13.3193 16.5221 13.3751 16.5599 13.4178C16.5981 13.4607 16.6515 13.487 16.7088 13.4913C16.7661 13.4955 16.8228 13.4772 16.8669 13.4404Z" fill="#ACA686" stroke="#ACA686" strokeWidth="0.3"/>
<path d="M17.2203 13.724C17.1606 13.724 17.1022 13.7417 17.0525 13.7748C17.0029 13.808 16.9642 13.8551 16.9413 13.9103C16.9184 13.9654 16.9124 14.0261 16.9241 14.0847C16.9357 14.1433 16.9644 14.1971 17.0066 14.2393C17.0489 14.2815 17.1026 14.3103 17.1612 14.3219C17.2198 14.3336 17.2805 14.3276 17.3356 14.3048C17.3908 14.2819 17.438 14.2432 17.4711 14.1936C17.5043 14.144 17.522 14.0856 17.522 14.0259C17.522 13.9458 17.4902 13.8691 17.4337 13.8125C17.3771 13.7559 17.3003 13.724 17.2203 13.724Z" fill="#ACA686" stroke="#ACA686" strokeWidth="0.3"/>
</svg>
