<svg width="40" height="40" viewBox="0 0 40 40" fill="none" xmlns="http://www.w3.org/2000/svg">
<rect width="40" height="40" rx="12" fill="#BAE7FF"/>
<path d="M21.1213 15.42L17.0333 25.5H15.5563L11.4683 15.42H12.7773C12.9219 15.42 13.0386 15.4573 13.1273 15.532C13.2159 15.602 13.2836 15.6907 13.3303 15.798L15.9273 22.371C16.0673 22.7397 16.1956 23.1643 16.3123 23.645C16.3636 23.407 16.4173 23.1807 16.4733 22.966C16.5339 22.7513 16.5993 22.553 16.6693 22.371L19.2593 15.798C19.2966 15.7047 19.3619 15.6183 19.4553 15.539C19.5486 15.4597 19.6653 15.42 19.8053 15.42H21.1213ZM27.3362 17.142C27.2848 17.226 27.2312 17.289 27.1752 17.331C27.1192 17.3683 27.0492 17.387 26.9652 17.387C26.8765 17.387 26.7762 17.3497 26.6642 17.275C26.5568 17.2003 26.4215 17.1187 26.2582 17.03C26.0995 16.9367 25.9105 16.8527 25.6912 16.778C25.4718 16.6987 25.2105 16.659 24.9072 16.659C24.6272 16.659 24.3798 16.694 24.1652 16.764C23.9552 16.834 23.7778 16.932 23.6332 17.058C23.4885 17.184 23.3788 17.3333 23.3042 17.506C23.2342 17.674 23.1992 17.8583 23.1992 18.059C23.1992 18.3157 23.2668 18.5303 23.4022 18.703C23.5375 18.871 23.7148 19.0157 23.9342 19.137C24.1582 19.2583 24.4125 19.3657 24.6972 19.459C24.9818 19.5477 25.2712 19.6433 25.5652 19.746C25.8638 19.8487 26.1555 19.9653 26.4402 20.096C26.7248 20.2267 26.9768 20.3923 27.1962 20.593C27.4202 20.7937 27.5998 21.0387 27.7352 21.328C27.8705 21.6173 27.9382 21.9697 27.9382 22.385C27.9382 22.833 27.8612 23.253 27.7072 23.645C27.5532 24.037 27.3292 24.38 27.0352 24.674C26.7458 24.9633 26.3865 25.192 25.9572 25.36C25.5325 25.528 25.0472 25.612 24.5012 25.612C24.1792 25.612 23.8642 25.5793 23.5562 25.514C23.2528 25.4533 22.9612 25.367 22.6812 25.255C22.4058 25.1383 22.1468 24.9983 21.9042 24.835C21.6615 24.6717 21.4445 24.4897 21.2532 24.289L21.7292 23.505C21.7712 23.4397 21.8248 23.3883 21.8902 23.351C21.9555 23.3137 22.0278 23.295 22.1072 23.295C22.2145 23.295 22.3335 23.3463 22.4642 23.449C22.5948 23.547 22.7512 23.6567 22.9332 23.778C23.1198 23.8947 23.3438 24.0043 23.6052 24.107C23.8665 24.205 24.1792 24.254 24.5432 24.254C25.1358 24.254 25.5932 24.1093 25.9152 23.82C26.2418 23.5307 26.4052 23.1317 26.4052 22.623C26.4052 22.3383 26.3375 22.1073 26.2022 21.93C26.0668 21.748 25.8872 21.5963 25.6632 21.475C25.4438 21.3537 25.1918 21.251 24.9072 21.167C24.6225 21.083 24.3332 20.9943 24.0392 20.901C23.7452 20.803 23.4558 20.691 23.1712 20.565C22.8865 20.4343 22.6322 20.2663 22.4082 20.061C22.1888 19.851 22.0115 19.5943 21.8762 19.291C21.7408 18.983 21.6732 18.6003 21.6732 18.143C21.6732 17.779 21.7432 17.4267 21.8832 17.086C22.0278 16.7453 22.2355 16.4443 22.5062 16.183C22.7815 15.917 23.1198 15.7047 23.5212 15.546C23.9225 15.3873 24.3798 15.308 24.8932 15.308C25.4718 15.308 26.0015 15.399 26.4822 15.581C26.9675 15.763 27.3852 16.022 27.7352 16.358L27.3362 17.142Z" fill="#2196F3"/>
</svg>
