<svg width="32" height="32" viewBox="0 0 32 32" fill="none" xmlns="http://www.w3.org/2000/svg">
<circle cx="16" cy="16" r="15.5" fill="white" stroke="#EEEBD9"/>
<path d="M9.13464 17.0514C9.13464 20.7469 12.0226 23.7584 15.715 23.9072C15.81 23.9135 15.905 23.9167 16 23.9167C16.095 23.9167 16.19 23.9135 16.2881 23.9104H16.2913H16.304C19.9836 23.752 22.8653 20.7437 22.8653 17.0545C22.8653 14.537 21.4593 12.2032 19.2585 11.0157C19.3155 10.87 19.363 10.7212 19.3915 10.5724C19.5023 9.96437 19.3503 9.40071 18.9386 8.89721C18.5206 8.38421 17.9348 8.08654 17.3331 8.08337C16.836 8.08337 16.3768 8.24804 16 8.54887C15.6263 8.25121 15.1608 8.08337 14.6826 8.08337C14.6763 8.08337 14.6731 8.08337 14.67 8.08337C14.0683 8.08654 13.4825 8.38421 13.0645 8.89404C12.6528 9.39754 12.5008 9.96121 12.6116 10.5692C12.6401 10.718 12.6876 10.8669 12.7446 11.0125C10.5121 12.219 9.13464 14.5022 9.13464 17.0514ZM16.2596 23.277C16.0886 23.2834 15.9113 23.2834 15.7403 23.277C13.0803 23.1409 10.9998 20.9495 10.9998 18.2832C10.9998 15.9747 12.6053 13.9575 14.8378 13.4255C15.3698 13.8245 15.7973 14.0715 15.8416 14.0969C15.8891 14.1254 15.9461 14.138 16 14.138C16.0538 14.138 16.1076 14.1254 16.1583 14.0969C16.2026 14.0715 16.6301 13.8245 17.1621 13.4255C19.3946 13.9575 21.0001 15.9747 21.0001 18.2832C21.0001 20.9495 18.9165 23.1409 16.2596 23.277ZM18.9735 11.5794C20.959 12.6592 22.232 14.7745 22.232 17.0514C22.232 18.3592 21.8298 19.5689 21.1458 20.5695C21.4561 19.8697 21.6366 19.097 21.6366 18.28C21.6366 15.8385 20.0406 13.6852 17.767 12.9347C18.2071 12.5484 18.6568 12.086 18.9735 11.5794ZM13.5521 9.29621C13.8466 8.93521 14.2646 8.71987 14.6731 8.71671H14.6826C15.0911 8.71671 15.487 8.89087 15.7688 9.19487C15.8891 9.32471 16.114 9.32471 16.2343 9.19487C16.513 8.89087 16.9088 8.71671 17.3173 8.71671H17.3268C17.7353 8.71987 18.1533 8.93521 18.4478 9.29621C18.7423 9.65404 18.8468 10.034 18.7676 10.4552C18.7328 10.6452 18.66 10.832 18.5681 11.0189L18.565 11.022V11.0252C18.2166 11.7092 17.5263 12.3457 16.9278 12.808C16.9088 12.8207 16.8898 12.8334 16.874 12.8492C16.5098 13.1279 16.1836 13.34 16 13.454C15.8163 13.34 15.4933 13.131 15.1323 12.8524C15.1133 12.8334 15.0943 12.8175 15.0721 12.8049C14.4736 12.3425 13.7865 11.7092 13.4381 11.0252C13.4381 11.022 13.4381 11.0189 13.435 11.0157C13.4318 11.0094 13.4286 11.0062 13.4255 11.003C13.3368 10.8225 13.2671 10.6389 13.2323 10.4552C13.1531 10.034 13.2576 9.65404 13.5521 9.29621ZM13.0233 11.5794C13.3431 12.086 13.7896 12.5515 14.2361 12.9379C11.9625 13.6884 10.3665 15.8417 10.3665 18.2832C10.3665 19.097 10.5438 19.8697 10.8573 20.5727C10.1733 19.572 9.77114 18.3592 9.77114 17.0545C9.76798 14.746 11.0093 12.675 13.0233 11.5794Z" fill="#ACA686"/>
</svg>
