<svg width="40" height="40" viewBox="0 0 40 40" fill="none" xmlns="http://www.w3.org/2000/svg">
<rect width="40" height="40" rx="12" fill="#BAE7FF"/>
<path d="M23.3669 15.42L20.2309 25.5H18.7539L16.3879 18.262C16.3599 18.1827 16.3319 18.0963 16.3039 18.003C16.2806 17.9097 16.2573 17.8093 16.2339 17.702C16.2106 17.8093 16.1849 17.9097 16.1569 18.003C16.1336 18.0963 16.1079 18.1827 16.0799 18.262L13.6929 25.5H12.2159L9.07995 15.42H10.4519C10.5919 15.42 10.7086 15.455 10.8019 15.525C10.8999 15.5903 10.9653 15.6813 10.9979 15.798L12.8879 22.259C12.9253 22.399 12.9603 22.5507 12.9929 22.714C13.0256 22.8773 13.0583 23.0477 13.0909 23.225C13.1236 23.0477 13.1586 22.8773 13.1959 22.714C13.2379 22.546 13.2823 22.3943 13.3289 22.259L15.4919 15.798C15.5246 15.7047 15.5899 15.6183 15.6879 15.539C15.7859 15.4597 15.9026 15.42 16.0379 15.42H16.5139C16.6586 15.42 16.7753 15.4573 16.8639 15.532C16.9526 15.602 17.0203 15.6907 17.0669 15.798L19.2229 22.259C19.2696 22.3943 19.3116 22.5413 19.3489 22.7C19.3909 22.854 19.4283 23.0173 19.4609 23.19C19.4936 23.0173 19.5239 22.854 19.5519 22.7C19.5846 22.5413 19.6196 22.3943 19.6569 22.259L21.5399 15.798C21.5679 15.6953 21.6309 15.6067 21.7289 15.532C21.8316 15.4573 21.9506 15.42 22.0859 15.42H23.3669ZM29.9065 17.142C29.8551 17.226 29.8015 17.289 29.7455 17.331C29.6895 17.3683 29.6195 17.387 29.5355 17.387C29.4468 17.387 29.3465 17.3497 29.2345 17.275C29.1271 17.2003 28.9918 17.1187 28.8285 17.03C28.6698 16.9367 28.4808 16.8527 28.2615 16.778C28.0421 16.6987 27.7808 16.659 27.4775 16.659C27.1975 16.659 26.9501 16.694 26.7355 16.764C26.5255 16.834 26.3481 16.932 26.2035 17.058C26.0588 17.184 25.9491 17.3333 25.8745 17.506C25.8045 17.674 25.7695 17.8583 25.7695 18.059C25.7695 18.3157 25.8371 18.5303 25.9725 18.703C26.1078 18.871 26.2851 19.0157 26.5045 19.137C26.7285 19.2583 26.9828 19.3657 27.2675 19.459C27.5521 19.5477 27.8415 19.6433 28.1355 19.746C28.4341 19.8487 28.7258 19.9653 29.0105 20.096C29.2951 20.2267 29.5471 20.3923 29.7665 20.593C29.9905 20.7937 30.1701 21.0387 30.3055 21.328C30.4408 21.6173 30.5085 21.9697 30.5085 22.385C30.5085 22.833 30.4315 23.253 30.2775 23.645C30.1235 24.037 29.8995 24.38 29.6055 24.674C29.3161 24.9633 28.9568 25.192 28.5275 25.36C28.1028 25.528 27.6175 25.612 27.0715 25.612C26.7495 25.612 26.4345 25.5793 26.1265 25.514C25.8231 25.4533 25.5315 25.367 25.2515 25.255C24.9761 25.1383 24.7171 24.9983 24.4745 24.835C24.2318 24.6717 24.0148 24.4897 23.8235 24.289L24.2995 23.505C24.3415 23.4397 24.3951 23.3883 24.4605 23.351C24.5258 23.3137 24.5981 23.295 24.6775 23.295C24.7848 23.295 24.9038 23.3463 25.0345 23.449C25.1651 23.547 25.3215 23.6567 25.5035 23.778C25.6901 23.8947 25.9141 24.0043 26.1755 24.107C26.4368 24.205 26.7495 24.254 27.1135 24.254C27.7061 24.254 28.1635 24.1093 28.4855 23.82C28.8121 23.5307 28.9755 23.1317 28.9755 22.623C28.9755 22.3383 28.9078 22.1073 28.7725 21.93C28.6371 21.748 28.4575 21.5963 28.2335 21.475C28.0141 21.3537 27.7621 21.251 27.4775 21.167C27.1928 21.083 26.9035 20.9943 26.6095 20.901C26.3155 20.803 26.0261 20.691 25.7415 20.565C25.4568 20.4343 25.2025 20.2663 24.9785 20.061C24.7591 19.851 24.5818 19.5943 24.4465 19.291C24.3111 18.983 24.2435 18.6003 24.2435 18.143C24.2435 17.779 24.3135 17.4267 24.4535 17.086C24.5981 16.7453 24.8058 16.4443 25.0765 16.183C25.3518 15.917 25.6901 15.7047 26.0915 15.546C26.4928 15.3873 26.9501 15.308 27.4635 15.308C28.0421 15.308 28.5718 15.399 29.0525 15.581C29.5378 15.763 29.9555 16.022 30.3055 16.358L29.9065 17.142Z" fill="#2196F3"/>
</svg>


